  <svg
    xmlns:dc="http://purl.org/dc/elements/1.1/"
    xmlns:cc="http://creativecommons.org/ns#"
    xmlns:rdf="http://www.w3.org/1999/02/22-rdf-syntax-ns#"
    xmlns:svg="http://www.w3.org/2000/svg"
    xmlns="http://www.w3.org/2000/svg"
    xml:space="preserve"
    viewBox="0 0 227 157"
    height="257"
    width="467"
    version="1.1"
  >
    <desc id="desc2">Created with Fabric.js 2.4.6</desc>
    <defs id="defs4" />

    <g id="g14" transform="matrix(2.36,0,0,2.36,108.15,79.06)">
      <path
        id="polygon12"
        d="m -16.41,-28.06 12.04,-0.95 13.89,1.98 17.28,-5.5 -4.3,8.15 -7.17,6.28 -3.26,1.47 3.44,-0.29 10.82,3.8 L 39.84,0.38 31.5,1.63 43.91,13.78 32.25,13.8 44.9,29.77 27.19,22.26 26.31,32.52 14.68,21.99 9.73,30.64 0.8,19.72 -2.52,26 -18.27,7.66 l -0.68,2.14 -7.21,-2.62 -0.75,2.07 -4.86,-2.48 -1.81,-0.13 -4.29,-4.13 3.43,-3.09 0.52,-3.77 1.15,1.78 11.34,1.55 6.77,1.45 -5.89,-5.61 -5.75,-2.3 -7.87,-1.66 -1.13,3.58 -2.6,-4.43 -3.72,-1.44 -1.58,-5.46 -1.7,-6.01 25.4,-0.01 z"
        style="
          opacity: 1;
          fill-rule: nonzero;
          fill: #000000;
          stroke: none;
          stroke-width: 1;
          stroke-linecap: butt;
          stroke-linejoin: miter;
          stroke-miterlimit: 4;
          stroke-dasharray: none;
          stroke-dashoffset: 0;
        "
      />
    </g>
  </svg>
